<?xml version="1.0" encoding="UTF-8"?>
<svg version="1.1" xmlns="http://www.w3.org/2000/svg" width="500" height="300">
<path d="M0 0 C10.64453125 -0.390625 10.64453125 -0.390625 14 0 C15.94921875 1.890625 15.94921875 1.890625 17 4 C17 4.66 17 5.32 17 6 C17.66 6 18.32 6 19 6 C20.01866229 7.65532623 21.01810813 9.32260138 22 11 C22.66 11.33 23.32 11.66 24 12 C24.20625 11.319375 24.4125 10.63875 24.625 9.9375 C26.70840778 5.48658338 28.17894073 3.30294953 32 0 C36.29 0 40.58 0 45 0 C45 8.58 45 17.16 45 26 C41.04 26 37.08 26 33 26 C32.505 23.03 32.505 23.03 32 20 C31.62875 20.65097656 31.2575 21.30195312 30.875 21.97265625 C29 24 29 24 26.1875 24.49609375 C25.135625 24.47675781 24.08375 24.45742188 23 24.4375 C21.948125 24.43621094 20.89625 24.43492188 19.8125 24.43359375 C16.7549472 23.96222103 15.84371218 23.41347046 14 21 C13.67 22.65 13.34 24.3 13 26 C8.71 26 4.42 26 0 26 C0 17.42 0 8.84 0 0 Z " fill="#EDEDED" transform="translate(108,30)"/>
<path d="M0 0 C0.91265625 -0.01224609 1.8253125 -0.02449219 2.765625 -0.03710938 C8.60122082 -0.0495786 14.32141624 0.23560327 19.875 2.1875 C23.15998805 5.47248805 22.3248937 9.59677584 22.375 14.0625 C22.41625 14.97386719 22.4575 15.88523437 22.5 16.82421875 C22.57710298 23.40688551 22.57710298 23.40688551 20.50390625 25.71191406 C18.84375 26.8203125 18.84375 26.8203125 15.875 28.1875 C16.37 30.1675 16.37 30.1675 16.875 32.1875 C14.60520335 32.29544277 12.33394804 32.37306176 10.0625 32.4375 C8.16564453 32.50710937 8.16564453 32.50710937 6.23046875 32.578125 C5.12316406 32.44921875 4.01585937 32.3203125 2.875 32.1875 C1.86209873 30.86394086 0.86206946 29.53043397 -0.125 28.1875 C-3.41059612 27.59603989 -3.41059612 27.59603989 -7.0625 27.625 C-14.70380466 27.48840465 -14.70380466 27.48840465 -18.125 24.1875 C-18.94764667 20.90444326 -18.72789377 17.56156784 -18.6875 14.1875 C-18.71134766 13.27226563 -18.73519531 12.35703125 -18.75976562 11.4140625 C-18.75423372 8.89888957 -18.67667305 6.64195303 -18.125 4.1875 C-12.831597 -0.4629439 -6.65333809 0.00458219 0 0 Z M-6.125 10.1875 C-6.48797936 12.16497122 -6.48797936 12.16497122 -6.3125 14.3125 C-6.250625 15.59125 -6.18875 16.87 -6.125 18.1875 C-3.39422124 19.55288938 -1.16939633 19.31981826 1.875 19.3125 C2.9475 19.31507812 4.02 19.31765625 5.125 19.3203125 C7.83682052 19.3747341 7.83682052 19.3747341 9.875 18.1875 C9.9678125 16.269375 9.9678125 16.269375 10.0625 14.3125 C10.09730469 13.59320313 10.13210938 12.87390625 10.16796875 12.1328125 C10.07128906 11.49085937 9.97460938 10.84890625 9.875 10.1875 C6.63585771 8.02807181 5.62640267 7.91517022 1.875 7.9375 C0.575625 7.92976563 0.575625 7.92976563 -0.75 7.921875 C-3.390795 8.03335448 -3.390795 8.03335448 -6.125 10.1875 Z " fill="#E9E9E9" transform="translate(258.125,78.8125)"/>
<path d="M0 0 C0.74900574 0.0028299 1.49801147 0.00565979 2.26971436 0.00857544 C4.65393276 0.0197399 7.03777079 0.04483719 9.421875 0.0703125 C11.04166123 0.08034715 12.66145336 0.08947215 14.28125 0.09765625 C18.24493746 0.11966695 22.20834181 0.15417075 26.171875 0.1953125 C26.171875 2.8353125 26.171875 5.4753125 26.171875 8.1953125 C23.48451712 8.36459489 20.79702616 8.5308078 18.109375 8.6953125 C16.98112305 8.76685547 16.98112305 8.76685547 15.83007812 8.83984375 C12.28289519 9.05482453 8.79542351 9.19232182 5.23828125 9.1640625 C2.25635295 8.970542 2.25635295 8.970542 0.171875 10.1953125 C0.12945777 12.52826025 0.13094563 14.86233817 0.171875 17.1953125 C1.29721605 18.55149749 1.29721605 18.55149749 4.234375 18.2578125 C5.6884375 18.226875 5.6884375 18.226875 7.171875 18.1953125 C7.171875 15.5553125 7.171875 12.9153125 7.171875 10.1953125 C10.48435687 10.16643104 13.79680667 10.14855451 17.109375 10.1328125 C18.52766602 10.12024414 18.52766602 10.12024414 19.97460938 10.10742188 C21.32329102 10.10258789 21.32329102 10.10258789 22.69921875 10.09765625 C23.53187256 10.09241943 24.36452637 10.08718262 25.22241211 10.08178711 C27.171875 10.1953125 27.171875 10.1953125 28.171875 11.1953125 C28.35017665 13.12740087 28.43980917 15.06802622 28.484375 17.0078125 C28.54044922 18.59529297 28.54044922 18.59529297 28.59765625 20.21484375 C28.05772724 23.99434684 27.18545783 24.89673482 24.171875 27.1953125 C20.85961914 27.72875977 20.85961914 27.72875977 16.95703125 27.76171875 C15.91789833 27.77101662 15.91789833 27.77101662 14.85777283 27.78050232 C13.39616294 27.78758907 11.93447213 27.78444623 10.47290039 27.77172852 C8.2440832 27.75787285 6.01947752 27.79192375 3.79101562 27.83007812 C2.36718648 27.83102955 0.94335211 27.82916921 -0.48046875 27.82421875 C-2.41394165 27.8253064 -2.41394165 27.8253064 -4.38647461 27.82641602 C-8.70890194 27.03380236 -10.18911956 25.65339464 -12.828125 22.1953125 C-13.41162109 20.11474609 -13.41162109 20.11474609 -13.3515625 18.09375 C-13.33996094 17.35640625 -13.32835937 16.6190625 -13.31640625 15.859375 C-13.27902344 15.10398438 -13.24164063 14.34859375 -13.203125 13.5703125 C-13.18894531 12.8071875 -13.17476563 12.0440625 -13.16015625 11.2578125 C-13.07482675 8.01529141 -12.85841453 5.2861811 -11.828125 2.1953125 C-8.27577591 -0.45847529 -4.23665749 -0.06048322 0 0 Z " fill="#E4E4E4" transform="translate(279.828125,180.8046875)"/>
<path d="M0 0 C2.09151691 -0.0021822 4.18250244 -0.02033849 6.27392578 -0.03930664 C7.61116357 -0.04224177 8.94840385 -0.04422577 10.28564453 -0.04516602 C12.10298096 -0.05132935 12.10298096 -0.05132935 13.95703125 -0.05761719 C17.2047882 0.18336105 19.37033069 0.65362126 22.23095703 2.18530273 C24.92983842 6.23362482 24.6346308 9.36833785 24.66845703 14.12280273 C24.70132813 14.93426758 24.73419922 15.74573242 24.76806641 16.58178711 C24.82209532 22.56917323 24.82209532 22.56917323 21.82861328 25.68920898 C17.5954405 28.12726188 14.63001079 28.31787317 9.81689453 28.28295898 C9.08725494 28.28154404 8.35761536 28.28012909 7.60586548 28.27867126 C5.27252118 28.27306804 2.93927239 28.26051508 0.60595703 28.24780273 C-0.97477075 28.24278815 -2.55550004 28.23822517 -4.13623047 28.23413086 C-8.01390115 28.2239479 -11.89136499 28.20437328 -15.76904297 28.18530273 C-15.76904297 19.27530273 -15.76904297 10.36530273 -15.76904297 1.18530273 C-10.69880038 -0.50477813 -5.30618872 -0.00062119 0 0 Z M-3.76904297 9.18530273 C-3.76904297 12.48530273 -3.76904297 15.78530273 -3.76904297 19.18530273 C-1.4776301 19.23914795 0.81413891 19.27802361 3.10595703 19.31030273 C4.38212891 19.33350586 5.65830078 19.35670898 6.97314453 19.38061523 C10.31689041 19.54171797 10.31689041 19.54171797 12.23095703 17.18530273 C12.56429036 14.18530273 12.56429036 14.18530273 12.23095703 11.18530273 C10.31689041 8.82888749 10.31689041 8.82888749 6.97314453 8.98999023 C5.05888672 9.02479492 5.05888672 9.02479492 3.10595703 9.06030273 C1.82462891 9.07834961 0.54330078 9.09639648 -0.77685547 9.11499023 C-1.76427734 9.13819336 -2.75169922 9.16139648 -3.76904297 9.18530273 Z " fill="#E6E6E6" transform="translate(222.76904296875,179.814697265625)"/>
<path d="M0 0 C2.17300022 -0.00968252 4.34504502 -0.04069388 6.51782227 -0.07226562 C7.90518645 -0.07879831 9.29255739 -0.08404774 10.67993164 -0.08789062 C11.93974854 -0.09723633 13.19956543 -0.10658203 14.49755859 -0.11621094 C18.12522323 0.26617231 19.97911107 1.07966188 22.87915039 3.24023438 C25.46526479 6.70672814 25.24572979 10.4683879 25.31665039 14.67773438 C25.3765918 16.62486328 25.3765918 16.62486328 25.43774414 18.61132812 C24.74819904 23.0909603 23.39428761 24.47870954 19.87915039 27.24023438 C16.37290609 28.40898248 13.23136379 28.36537705 9.58618164 28.33789062 C8.52713875 28.3357682 8.52713875 28.3357682 7.44670105 28.33360291 C5.19497413 28.32801202 2.94334718 28.31546125 0.69165039 28.30273438 C-0.83634296 28.29771819 -2.36433788 28.29315549 -3.89233398 28.2890625 C-7.63524189 28.27889708 -11.37793404 28.25932006 -15.12084961 28.24023438 C-15.12084961 19.33023438 -15.12084961 10.42023438 -15.12084961 1.24023438 C-10.7465618 -0.94690953 -4.86124826 0.01312816 0 0 Z M-3.12084961 9.24023438 C-3.12084961 12.54023438 -3.12084961 15.84023437 -3.12084961 19.24023438 C-0.80841169 19.26708849 1.50411309 19.28656279 3.81665039 19.30273438 C5.74831055 19.32013672 5.74831055 19.32013672 7.71899414 19.33789062 C10.74213442 19.60555987 10.74213442 19.60555987 11.87915039 18.24023438 C12.03968854 16.3670149 12.03968854 16.3670149 12.00415039 14.24023438 C12.00672852 13.51835937 12.00930664 12.79648438 12.01196289 12.05273438 C12.07610315 10.21934023 12.07610315 10.21934023 10.87915039 9.24023438 C8.52601484 9.16751696 6.17081371 9.1565257 3.81665039 9.17773438 C2.52629883 9.18675781 1.23594727 9.19578125 -0.09350586 9.20507812 C-1.0925293 9.21667969 -2.09155273 9.22828125 -3.12084961 9.24023438 Z " fill="#E4E4E4" transform="translate(164.120849609375,179.759765625)"/>
<path d="M0 0 C1.12563103 0.00212242 1.12563103 0.00212242 2.27400208 0.00428772 C4.66838585 0.00988065 7.06267578 0.02243181 9.45703125 0.03515625 C11.08137886 0.04017217 12.70572793 0.04473491 14.33007812 0.04882812 C18.30993194 0.05984777 22.28971569 0.07710752 26.26953125 0.09765625 C26.26953125 2.73765625 26.26953125 5.37765625 26.26953125 8.09765625 C23.4571937 8.26754935 20.64471276 8.43363857 17.83203125 8.59765625 C16.65737305 8.66919922 16.65737305 8.66919922 15.45898438 8.7421875 C10.05295078 9.05364623 4.6845707 9.14101993 -0.73046875 9.09765625 C-0.73046875 12.06765625 -0.73046875 15.03765625 -0.73046875 18.09765625 C1.57953125 18.09765625 3.88953125 18.09765625 6.26953125 18.09765625 C6.26953125 15.45765625 6.26953125 12.81765625 6.26953125 10.09765625 C12.86953125 10.09765625 19.46953125 10.09765625 26.26953125 10.09765625 C26.26953125 15.04765625 26.26953125 19.99765625 26.26953125 25.09765625 C22.42011498 27.02236438 21.0747488 27.35325152 16.98046875 27.36328125 C15.44326172 27.36714844 15.44326172 27.36714844 13.875 27.37109375 C12.27591797 27.35949219 12.27591797 27.35949219 10.64453125 27.34765625 C9.08025391 27.35925781 9.08025391 27.35925781 7.484375 27.37109375 C-5.68338442 27.33821545 -5.68338442 27.33821545 -11.73046875 25.09765625 C-14.28352801 21.26806737 -14.06159576 18.09710897 -14.04296875 13.66015625 C-14.05908203 12.89638672 -14.07519531 12.13261719 -14.09179688 11.34570312 C-14.09477862 7.91968037 -14.04405729 5.67977222 -12.3984375 2.625 C-8.83329367 -0.63956965 -4.53254912 -0.0321244 0 0 Z " fill="#E7E7E7" transform="translate(380.73046875,28.90234375)"/>
<path d="M0 0 C1.12563103 0.00212242 1.12563103 0.00212242 2.27400208 0.00428772 C4.66838585 0.00988065 7.06267578 0.02243181 9.45703125 0.03515625 C11.08137886 0.04017217 12.70572793 0.04473491 14.33007812 0.04882812 C18.30993194 0.05984777 22.28971569 0.07710752 26.26953125 0.09765625 C26.26953125 2.73765625 26.26953125 5.37765625 26.26953125 8.09765625 C23.4154915 8.26678453 20.56133123 8.43302788 17.70703125 8.59765625 C16.90716797 8.64535156 16.10730469 8.69304688 15.28320312 8.7421875 C11.60886633 8.9521496 7.98779923 9.0954357 4.3046875 9.06640625 C1.34935137 8.87525396 1.34935137 8.87525396 -0.73046875 10.09765625 C-0.73046875 12.40765625 -0.73046875 14.71765625 -0.73046875 17.09765625 C1.57953125 17.42765625 3.88953125 17.75765625 6.26953125 18.09765625 C6.26953125 15.45765625 6.26953125 12.81765625 6.26953125 10.09765625 C12.86953125 10.09765625 19.46953125 10.09765625 26.26953125 10.09765625 C26.26953125 15.04765625 26.26953125 19.99765625 26.26953125 25.09765625 C22.42011498 27.02236438 21.0747488 27.35325152 16.98046875 27.36328125 C15.44326172 27.36714844 15.44326172 27.36714844 13.875 27.37109375 C12.27591797 27.35949219 12.27591797 27.35949219 10.64453125 27.34765625 C9.08025391 27.35925781 9.08025391 27.35925781 7.484375 27.37109375 C-9.49943777 27.32868723 -9.49943777 27.32868723 -13.73046875 23.09765625 C-14.17673658 19.97219469 -14.05457177 16.81385785 -14.04296875 13.66015625 C-14.05908203 12.78810547 -14.07519531 11.91605469 -14.09179688 11.01757812 C-14.09244141 10.17904297 -14.09308594 9.34050781 -14.09375 8.4765625 C-14.09673096 7.70900635 -14.09971191 6.9414502 -14.1027832 6.15063477 C-13.63069941 3.54751831 -12.80137414 2.70086927 -10.73046875 1.09765625 C-7.09813773 -0.11312076 -3.77924888 -0.02678539 0 0 Z " fill="#E4E4E4" transform="translate(216.73046875,28.90234375)"/>
<path d="M0 0 C1.05904289 0.00424484 1.05904289 0.00424484 2.13948059 0.00857544 C4.39133758 0.01975786 6.64279477 0.0448583 8.89453125 0.0703125 C10.42252029 0.08034483 11.95051558 0.08947024 13.47851562 0.09765625 C17.22150788 0.11969078 20.96420181 0.15420683 24.70703125 0.1953125 C24.70703125 2.8353125 24.70703125 5.4753125 24.70703125 8.1953125 C24.04703125 8.5253125 23.38703125 8.8553125 22.70703125 9.1953125 C23.36703125 9.8759375 24.02703125 10.5565625 24.70703125 11.2578125 C27.2263336 14.95803783 27.41366535 16.7984781 26.70703125 21.1953125 C24.62253939 24.22004325 22.96584519 25.92906179 19.30151367 26.70410156 C16.36585633 26.95213412 13.46538376 27.0402336 10.51953125 27.0703125 C9.52888672 27.10382813 8.53824219 27.13734375 7.51757812 27.171875 C1.17391626 27.33826613 -4.99902351 26.98779989 -11.29296875 26.1953125 C-11.29296875 23.5553125 -11.29296875 20.9153125 -11.29296875 18.1953125 C-9.31296875 17.8653125 -7.33296875 17.5353125 -5.29296875 17.1953125 C-6.24171875 16.8240625 -7.19046875 16.4528125 -8.16796875 16.0703125 C-11.29296875 14.1953125 -11.29296875 14.1953125 -12.85546875 11.3828125 C-13.41370881 7.31563493 -12.52720986 5.58519556 -10.29296875 2.1953125 C-6.69852692 -0.20098205 -4.14435223 -0.06250081 0 0 Z " fill="#E0E0E0" transform="translate(445.29296875,231.8046875)"/>
<path d="M0 0 C12.04489434 -1.15486552 12.04489434 -1.15486552 17.2734375 1.93359375 C19.96785362 4.19097991 22.49131063 6.54015237 25 9 C25.99 9.66 26.98 10.32 28 11 C28.33 7.37 28.66 3.74 29 0 C32.96 0 36.92 0 41 0 C41 8.91 41 17.82 41 27 C28 27 28 27 24 24 C24 23.34 24 22.68 24 22 C23.443125 21.7525 22.88625 21.505 22.3125 21.25 C19.60028873 19.78393985 17.36412635 17.97010529 15 16 C14.95101562 16.71027344 14.90203125 17.42054687 14.8515625 18.15234375 C14.77679688 19.07144531 14.70203125 19.99054688 14.625 20.9375 C14.55539063 21.85402344 14.48578125 22.77054688 14.4140625 23.71484375 C14.27742187 24.46894531 14.14078125 25.22304687 14 26 C11.37670316 27.31164842 9.36301375 27.13262846 6.4375 27.125 C5.44621094 27.12757812 4.45492187 27.13015625 3.43359375 27.1328125 C1 27 1 27 0 26 C-0.08748207 24.07332493 -0.10697334 22.14348139 -0.09765625 20.21484375 C-0.09443359 19.04501953 -0.09121094 17.87519531 -0.08789062 16.66992188 C-0.07951172 15.43822266 -0.07113281 14.20652344 -0.0625 12.9375 C-0.05798828 11.70193359 -0.05347656 10.46636719 -0.04882812 9.19335938 C-0.03699608 6.12885883 -0.02051173 3.06445279 0 0 Z " fill="#E4E4E4" transform="translate(179,80)"/>
<path d="M0 0 C12.21 0 24.42 0 37 0 C37 2.31 37 4.62 37 7 C35.02 7.99 35.02 7.99 33 9 C33 11.64 33 14.28 33 17 C34.32 17.66 35.64 18.32 37 19 C37.1875 21.875 37.1875 21.875 37 25 C33.57381417 27.28412389 32.3261018 27.24664234 28.30078125 27.23046875 C26.60985352 27.22756836 26.60985352 27.22756836 24.88476562 27.22460938 C23.70591797 27.21236328 22.52707031 27.20011719 21.3125 27.1875 C20.15298828 27.18685547 18.99347656 27.18621094 17.79882812 27.18554688 C11.70206875 27.15435254 6.10245654 26.76280707 0 26 C0 17.42 0 8.84 0 0 Z M12 8 C12 8.33 12 8.66 12 9 C15.96 9 19.92 9 24 9 C24 8.67 24 8.34 24 8 C20.04 8 16.08 8 12 8 Z " fill="#E4E4E4" transform="translate(393,232)"/>
<path d="M0 0 C11.88 0 23.76 0 36 0 C36 2.64 36 5.28 36 8 C28.41 8 20.82 8 13 8 C13 8.66 13 9.32 13 10 C19.6 10 26.2 10 33 10 C33 12.64 33 15.28 33 18 C33.99 18.33 34.98 18.66 36 19 C36 21.64 36 24.28 36 27 C33.41805826 28.29097087 31.54105615 28.12948641 28.65234375 28.1328125 C27.57146484 28.13410156 26.49058594 28.13539062 25.37695312 28.13671875 C24.24193359 28.13285156 23.10691406 28.12898438 21.9375 28.125 C20.82955078 28.12886719 19.72160156 28.13273437 18.58007812 28.13671875 C16.94522461 28.13478516 16.94522461 28.13478516 15.27734375 28.1328125 C14.28984131 28.13168457 13.30233887 28.13055664 12.28491211 28.12939453 C8.17585956 27.96753665 4.08708761 27.45412085 0 27 C0 18.09 0 9.18 0 0 Z " fill="#E3E3E3" transform="translate(327,79)"/>
<path d="M0 0 C3.06345144 -0.10822792 6.1230601 -0.18741479 9.1875 -0.25 C10.05181641 -0.28351563 10.91613281 -0.31703125 11.80664062 -0.3515625 C18.33353134 -0.45159148 18.33353134 -0.45159148 21.98046875 2.01953125 C22.64691406 2.67308594 23.31335938 3.32664063 24 4 C26.15732132 4.08568503 26.15732132 4.08568503 28 3 C28.44641846 2.49170654 28.89283691 1.98341309 29.3527832 1.4597168 C31.44670582 -0.39585802 32.46989032 -0.35170446 35.23046875 -0.29296875 C36.03291016 -0.28330078 36.83535156 -0.27363281 37.66210938 -0.26367188 C38.49548828 -0.23853516 39.32886719 -0.21339844 40.1875 -0.1875 C41.4549707 -0.16719727 41.4549707 -0.16719727 42.74804688 -0.14648438 C44.83230384 -0.11115799 46.91623277 -0.05735139 49 0 C48.34 1.32 47.68 2.64 47 4 C46.34 4 45.68 4 45 4 C45 4.66 45 5.32 45 6 C43.03125 7.7265625 43.03125 7.7265625 40.5 9.625 C39.6646875 10.25664062 38.829375 10.88828125 37.96875 11.5390625 C37.3190625 12.02117187 36.669375 12.50328125 36 13 C37.40765625 13.93972656 37.40765625 13.93972656 38.84375 14.8984375 C40.06274183 15.7236012 41.28147876 16.54914153 42.5 17.375 C43.12003906 17.7875 43.74007812 18.2 44.37890625 18.625 C45.95525621 19.69899668 47.48208757 20.84488532 49 22 C49 22.66 49 23.32 49 24 C49.66 24 50.32 24 51 24 C51 24.99 51 25.98 51 27 C34.3270576 28.20596483 34.3270576 28.20596483 28.4375 23.5 C26.37109375 21.53125 26.37109375 21.53125 25 20 C24.54753906 20.5053125 24.09507813 21.010625 23.62890625 21.53125 C18.2643782 26.64225593 14.10987835 27.6044555 6.9375 27.4375 C4.28295272 27.34473579 1.65020885 27.19169134 -1 27 C-1 26.01 -1 25.02 -1 24 C0.37695312 22.6496582 0.37695312 22.6496582 2.28125 21.30078125 C3.29638672 20.57084961 3.29638672 20.57084961 4.33203125 19.82617188 C5.04746094 19.32666016 5.76289062 18.82714844 6.5 18.3125 C7.21542969 17.80138672 7.93085937 17.29027344 8.66796875 16.76367188 C10.43924023 15.50016489 12.21653709 14.24621052 14 13 C10.89229621 9.79845791 7.7566282 6.92536642 4.1875 4.25 C2.77425077 3.18948671 1.37269271 2.11250912 0 1 C0 0.67 0 0.34 0 0 Z " fill="#DFDFDF" transform="translate(69,232)"/>
<path d="M0 0 C2.08268593 -0.08126087 4.16628658 -0.13930839 6.25 -0.1875 C7.99023438 -0.23970703 7.99023438 -0.23970703 9.765625 -0.29296875 C13.22882755 0.02072713 14.59230906 0.53867238 17 3 C17 3.66 17 4.32 17 5 C17.721875 5.2475 18.44375 5.495 19.1875 5.75 C22.24713266 7.10983674 24.4673738 8.82917754 27 11 C26.98839844 10.28972656 26.97679687 9.57945312 26.96484375 8.84765625 C26.95582031 7.92855469 26.94679688 7.00945312 26.9375 6.0625 C26.92589844 5.14597656 26.91429687 4.22945312 26.90234375 3.28515625 C27 1 27 1 28 0 C30.01964199 -0.07244053 32.04167124 -0.08377188 34.0625 -0.0625 C35.71958984 -0.04896484 35.71958984 -0.04896484 37.41015625 -0.03515625 C38.26480469 -0.02355469 39.11945313 -0.01195312 40 0 C40.02886537 4.31248609 40.04675255 8.62494762 40.0625 12.9375 C40.07087891 14.16919922 40.07925781 15.40089844 40.08789062 16.66992188 C40.09111328 17.83974609 40.09433594 19.00957031 40.09765625 20.21484375 C40.10289307 21.29886475 40.10812988 22.38288574 40.11352539 23.49975586 C40 26 40 26 39 27 C34.63115914 27.95881049 30.27756997 28.233868 26.23974609 26.04638672 C21.46348312 22.82791227 17.06958877 19.06958877 13 15 C12.93941406 15.78246094 12.87882812 16.56492188 12.81640625 17.37109375 C12.73261719 18.38300781 12.64882813 19.39492187 12.5625 20.4375 C12.48128906 21.44683594 12.40007812 22.45617187 12.31640625 23.49609375 C12 26 12 26 11 27 C9.14712498 27.07226502 7.29166122 27.0838122 5.4375 27.0625 C4.42558594 27.05347656 3.41367187 27.04445313 2.37109375 27.03515625 C1.58863281 27.02355469 0.80617188 27.01195312 0 27 C-1.20621589 24.58756823 -1.12921389 23.04383395 -1.1328125 20.3515625 C-1.13410156 19.42859375 -1.13539063 18.505625 -1.13671875 17.5546875 C-1.13285156 16.58789062 -1.12898438 15.62109375 -1.125 14.625 C-1.12886719 13.6659375 -1.13273437 12.706875 -1.13671875 11.71875 C-1.13542969 10.79320312 -1.13414062 9.86765625 -1.1328125 8.9140625 C-1.13168457 8.0679541 -1.13055664 7.2218457 -1.12939453 6.35009766 C-1.00559344 4.10158956 -0.62653416 2.15709426 0 0 Z " fill="#E6E6E6" transform="translate(306,232)"/>
<path d="M0 0 C1.36521966 0.01507008 2.73045535 0.02875439 4.09570312 0.04101562 C7.41838096 0.07623836 10.74023181 0.12549959 14.0625 0.1875 C14.0625 2.8275 14.0625 5.4675 14.0625 8.1875 C12.4125 8.5175 10.7625 8.8475 9.0625 9.1875 C10.3825 9.5175 11.7025 9.8475 13.0625 10.1875 C13.0625 10.8475 13.0625 11.5075 13.0625 12.1875 C13.7225 12.1875 14.3825 12.1875 15.0625 12.1875 C16.62766118 15.31782236 16.602837 18.77823084 16.0625 22.1875 C14.88012695 24.27661133 14.88012695 24.27661133 13.0625 26.1875 C10.58569336 26.74926758 10.58569336 26.74926758 7.65234375 26.83203125 C6.57919922 26.86876953 5.50605469 26.90550781 4.40039062 26.94335938 C3.27826172 26.96205078 2.15613281 26.98074219 1 27 C-0.09505859 27.03802734 -1.19011719 27.07605469 -2.31835938 27.11523438 C-8.9400856 27.30059538 -15.36843127 27.04183992 -21.9375 26.1875 C-21.9375 23.5475 -21.9375 20.9075 -21.9375 18.1875 C-20.9475 17.8575 -19.9575 17.5275 -18.9375 17.1875 C-19.9275 16.5275 -20.9175 15.8675 -21.9375 15.1875 C-23.68825988 6.14190729 -23.68825988 6.14190729 -21.9375 3.1875 C-15.10761978 -0.95305145 -7.74711844 -0.14892901 0 0 Z M-3.9375 8.1875 C-3.9375 8.5175 -3.9375 8.8475 -3.9375 9.1875 C-0.9675 9.1875 2.0025 9.1875 5.0625 9.1875 C5.0625 8.8575 5.0625 8.5275 5.0625 8.1875 C2.0925 8.1875 -0.8775 8.1875 -3.9375 8.1875 Z " fill="#E7E7E7" transform="translate(401.9375,129.8125)"/>
<path d="M0 0 C11.88 0 23.76 0 36 0 C36 2.64 36 5.28 36 8 C35.01 8.33 34.02 8.66 33 9 C33 11.64 33 14.28 33 17 C33.99 17.33 34.98 17.66 36 18 C36 20.64 36 23.28 36 26 C33.29625042 27.35187479 31.16870042 27.12964275 28.14453125 27.1328125 C26.37432617 27.13474609 26.37432617 27.13474609 24.56835938 27.13671875 C23.32892578 27.13285156 22.08949219 27.12898438 20.8125 27.125 C19.59240234 27.12886719 18.37230469 27.13273437 17.11523438 27.13671875 C15.92865234 27.13542969 14.74207031 27.13414062 13.51953125 27.1328125 C12.43776611 27.13168457 11.35600098 27.13055664 10.24145508 27.12939453 C6.80967496 26.99240248 3.3999947 26.48571353 0 26 C0 17.42 0 8.84 0 0 Z " fill="#E6E6E6" transform="translate(258,130)"/>
<path d="M0 0 C11.88 0 23.76 0 36 0 C36 2.64 36 5.28 36 8 C35.01 8.33 34.02 8.66 33 9 C33 11.64 33 14.28 33 17 C33.99 17.33 34.98 17.66 36 18 C36 20.64 36 23.28 36 26 C33.35713412 27.32143294 31.35534582 27.12956773 28.3984375 27.1328125 C27.26792969 27.13410156 26.13742188 27.13539063 24.97265625 27.13671875 C23.78542969 27.13285156 22.59820312 27.12898438 21.375 27.125 C20.21097656 27.12886719 19.04695313 27.13273437 17.84765625 27.13671875 C16.70941406 27.13542969 15.57117188 27.13414062 14.3984375 27.1328125 C13.36380371 27.13168457 12.32916992 27.13055664 11.26318359 27.12939453 C7.49292453 26.97989301 3.74408469 26.46801059 0 26 C0 17.42 0 8.84 0 0 Z M12 8 C12 8.33 12 8.66 12 9 C15.96 9 19.92 9 24 9 C24 8.67 24 8.34 24 8 C20.04 8 16.08 8 12 8 Z " fill="#ECECEC" transform="translate(28,232)"/>
<path d="M0 0 C13 0 13 0 16 2 C16 2.66 16 3.32 16 4 C17.65 4.66 19.3 5.32 21 6 C21 6.66 21 7.32 21 8 C21.928125 8.4640625 21.928125 8.4640625 22.875 8.9375 C24.25 9.625 25.625 10.3125 27 11 C27.33 7.37 27.66 3.74 28 0 C31.96 0 35.92 0 40 0 C40 8.91 40 17.82 40 27 C26.23809524 27 26.23809524 27 21 22 C21 21.34 21 20.68 21 20 C20.236875 19.71125 19.47375 19.4225 18.6875 19.125 C16 18 16 18 13 16 C13 19.63 13 23.26 13 27 C8.71 27 4.42 27 0 27 C0 18.09 0 9.18 0 0 Z " fill="#E0E0E0" transform="translate(104,181)"/>
<path d="M0 0 C11.88 0 23.76 0 36 0 C36 2.64 36 5.28 36 8 C35.01 8.33 34.02 8.66 33 9 C33 11.64 33 14.28 33 17 C33.99 17.33 34.98 17.66 36 18 C36 20.64 36 23.28 36 26 C33.35713412 27.32143294 31.35534582 27.12956773 28.3984375 27.1328125 C27.26792969 27.13410156 26.13742187 27.13539063 24.97265625 27.13671875 C23.78542969 27.13285156 22.59820312 27.12898438 21.375 27.125 C20.21097656 27.12886719 19.04695313 27.13273437 17.84765625 27.13671875 C16.70941406 27.13542969 15.57117188 27.13414062 14.3984375 27.1328125 C13.36380371 27.13168457 12.32916992 27.13055664 11.26318359 27.12939453 C7.49292453 26.97989301 3.74408469 26.46801059 0 26 C0 17.42 0 8.84 0 0 Z " fill="#E4E4E4" transform="translate(266,232)"/>
<path d="M0 0 C12.16486782 -1.08399812 12.16486782 -1.08399812 17.2734375 1.93359375 C19.96785362 4.19097991 22.49131063 6.54015237 25 9 C25.99 9.66 26.98 10.32 28 11 C28 7.37 28 3.74 28 0 C32.29 0 36.58 0 41 0 C41.0268245 4.14587582 41.04675315 8.29158038 41.0625 12.4375 C41.07087891 13.62150391 41.07925781 14.80550781 41.08789062 16.02539062 C41.09111328 17.15009766 41.09433594 18.27480469 41.09765625 19.43359375 C41.10289307 20.47572021 41.10812988 21.51784668 41.11352539 22.59155273 C41 25 41 25 40 26 C34.18933602 27.17027383 29.19430422 26.96267659 24.08984375 23.83984375 C20.54072583 21.42147364 17.1892516 18.87787497 14 16 C14 15.34 14 14.68 14 14 C13.34 14 12.68 14 12 14 C12.08378906 14.78246094 12.16757812 15.56492187 12.25390625 16.37109375 C12.35574219 17.38300781 12.45757812 18.39492188 12.5625 19.4375 C12.66691406 20.44683594 12.77132813 21.45617187 12.87890625 22.49609375 C12.91886719 23.32238281 12.95882813 24.14867188 13 25 C12.67 25.33 12.34 25.66 12 26 C8.04 26 4.08 26 0 26 C0 17.42 0 8.84 0 0 Z " fill="#EAEAEA" transform="translate(323,30)"/>
<path d="M0 0 C13.92857143 -0.80357143 13.92857143 -0.80357143 18.75 2.9375 C19.84569031 3.9450587 20.93177755 4.96336477 22 6 C22.66 6.33 23.32 6.66 24 7 C24 7.66 24 8.32 24 9 C24.66 9 25.32 9 26 9 C26 9.66 26 10.32 26 11 C26.66 11 27.32 11 28 11 C27.979375 9.9275 27.95875 8.855 27.9375 7.75 C28 4 28 4 29 0 C32.96 0 36.92 0 41 0 C41 8.58 41 17.16 41 26 C26.04450887 26 26.04450887 26 20.75 21.0625 C20.19699219 20.59392578 19.64398438 20.12535156 19.07421875 19.64257812 C17.32775415 18.15143206 15.62446189 16.62446189 14 15 C13.93941406 15.71027344 13.87882813 16.42054688 13.81640625 17.15234375 C13.73261719 18.07144531 13.64882812 18.99054688 13.5625 19.9375 C13.48128906 20.85402344 13.40007812 21.77054688 13.31640625 22.71484375 C13 25 13 25 12 26 C8.04 26 4.08 26 0 26 C0 17.42 0 8.84 0 0 Z " fill="#E6E6E6" transform="translate(170,131)"/>
<path d="M0 0 C0.74093399 -0.00761353 1.48186798 -0.01522705 2.24525452 -0.02307129 C3.81117384 -0.03386853 5.37716515 -0.03672688 6.94311523 -0.03222656 C9.33634865 -0.03125459 11.72637067 -0.07286326 14.11914062 -0.1171875 C15.64192041 -0.12239506 17.16471132 -0.12508268 18.6875 -0.125 C19.40115219 -0.14139526 20.11480438 -0.15779053 20.8500824 -0.17468262 C24.56990356 -0.12307468 26.11697378 0.19220903 28.86181641 2.78125 C30.90737135 6.3317812 30.90881391 8.89157276 30.84765625 12.96875 C30.84636719 14.2578125 30.84507812 15.546875 30.84375 16.875 C30.39188468 20.62019002 29.7960247 22.56891896 27.41015625 25.46875 C21.8383462 27.48127825 15.30231432 26.69525516 9.47265625 26.71875 C8.19712891 26.739375 6.92160156 26.76 5.60742188 26.78125 C3.76374023 26.78898437 3.76374023 26.78898437 1.8828125 26.796875 C0.76140869 26.8062207 -0.35999512 26.81556641 -1.51538086 26.82519531 C-5.24394326 26.39291539 -7.9167726 25.14182115 -10.58984375 22.46875 C-10.86727341 19.35229012 -10.82160847 16.22110077 -10.83984375 13.09375 C-10.86046875 12.2171875 -10.88109375 11.340625 -10.90234375 10.4375 C-10.9075 9.59445313 -10.91265625 8.75140625 -10.91796875 7.8828125 C-10.92731445 7.1088916 -10.93666016 6.3349707 -10.94628906 5.53759766 C-10.58984375 3.46875 -10.58984375 3.46875 -9.54370117 1.72216797 C-6.53964992 -0.20495925 -3.45969215 0.00097368 0 0 Z M2.41015625 8.46875 C2.38953125 9.933125 2.36890625 11.3975 2.34765625 12.90625 C2.33605469 13.72996094 2.32445312 14.55367187 2.3125 15.40234375 C2.17748277 17.46038938 2.17748277 17.46038938 3.41015625 18.46875 C5.57496422 18.5676794 7.7430941 18.598461 9.91015625 18.59375 C11.09609375 18.59632813 12.28203125 18.59890625 13.50390625 18.6015625 C16.30275047 18.80085219 16.30275047 18.80085219 17.41015625 17.46875 C17.48195589 15.94946962 17.49407632 14.42707518 17.47265625 12.90625 C17.45203125 11.441875 17.43140625 9.9775 17.41015625 8.46875 C12.46015625 8.46875 7.51015625 8.46875 2.41015625 8.46875 Z " fill="#E6E6E6" transform="translate(136.58984375,130.53125)"/>
<path d="M0 0 C11.55 0 23.1 0 35 0 C35.495 3.465 35.495 3.465 36 7 C34.02 7.99 34.02 7.99 32 9 C32 11.64 32 14.28 32 17 C32.99 17.33 33.98 17.66 35 18 C35 20.64 35 23.28 35 26 C32.34884365 27.32557818 30.32929477 27.12957777 27.36328125 27.1328125 C26.22826172 27.13410156 25.09324219 27.13539063 23.92382812 27.13671875 C22.73208984 27.13285156 21.54035156 27.12898438 20.3125 27.125 C18.55389648 27.13080078 18.55389648 27.13080078 16.75976562 27.13671875 C15.61830078 27.13542969 14.47683594 27.13414062 13.30078125 27.1328125 C12.26091064 27.13168457 11.22104004 27.13055664 10.1496582 27.12939453 C6.74842682 26.98966485 3.36988743 26.48141249 0 26 C0 17.42 0 8.84 0 0 Z " fill="#E5E5E5" transform="translate(167,232)"/>
<path d="M0 0 C4.76984706 -0.09192425 9.53661287 -0.17152499 14.30664062 -0.21972656 C15.92849143 -0.23982144 17.55026997 -0.26710254 19.171875 -0.30175781 C21.5053898 -0.3503727 23.83794557 -0.37298889 26.171875 -0.390625 C27.25647003 -0.42159271 27.25647003 -0.42159271 28.36297607 -0.45318604 C31.83987543 -0.45472991 33.66070309 -0.26050988 36.45605469 1.88574219 C38.71053501 4.97299703 38.55238466 7.1707393 38.40625 10.87890625 C37.83307611 13.87153529 36.35158249 15.16282618 34 17 C34 17.66 34 18.32 34 19 C34.66 19.33 35.32 19.66 36 20 C36 20.66 36 21.32 36 22 C36.66 22 37.32 22 38 22 C38.66 23.32 39.32 24.64 40 26 C25.72762881 27.23362632 25.72762881 27.23362632 21.5546875 24.25390625 C19.8125 22.0625 19.8125 22.0625 18.45703125 19.84765625 C17.0905776 17.74253988 17.0905776 17.74253988 14.32421875 17.24609375 C13.55722656 17.16488281 12.79023438 17.08367187 12 17 C12 19.97 12 22.94 12 26 C8.04 26 4.08 26 0 26 C0 17.42 0 8.84 0 0 Z M12 8 C12 8.33 12 8.66 12 9 C15.96 9 19.92 9 24 9 C24 8.67 24 8.34 24 8 C20.04 8 16.08 8 12 8 Z " fill="#E7E7E7" transform="translate(207,232)"/>
<path d="M0 0 C14.58409546 -0.84139012 14.58409546 -0.84139012 20.7421875 4.4921875 C22 6 22 6 22 8 C23.65 8.66 25.3 9.32 27 10 C27.33 6.7 27.66 3.4 28 0 C31.96 0 35.92 0 40 0 C40 8.58 40 17.16 40 26 C25.15151515 26 25.15151515 26 20 21 C20 20.34 20 19.68 20 19 C19.38125 18.71125 18.7625 18.4225 18.125 18.125 C16 17 16 17 14 15 C13.93941406 15.71027344 13.87882812 16.42054687 13.81640625 17.15234375 C13.73261719 18.07144531 13.64882813 18.99054687 13.5625 19.9375 C13.48128906 20.85402344 13.40007812 21.77054688 13.31640625 22.71484375 C13 25 13 25 12 26 C8.04 26 4.08 26 0 26 C0 17.42 0 8.84 0 0 Z " fill="#ECECEC" transform="translate(263,30)"/>
<path d="M0 0 C1.7015625 -0.00386719 1.7015625 -0.00386719 3.4375 -0.0078125 C4.613125 -0.00007812 5.78875 0.00765625 7 0.015625 C8.7634375 0.00402344 8.7634375 0.00402344 10.5625 -0.0078125 C11.696875 -0.00523437 12.83125 -0.00265625 14 0 C15.03125 0.00225586 16.0625 0.00451172 17.125 0.00683594 C20.13604483 0.27787088 22.30002591 0.92400071 25 2.265625 C27.12231276 5.19643786 27.28862377 7.70593188 27 11.265625 C26 12.265625 26 12.265625 23.49609375 12.36328125 C21.98208984 12.34587891 21.98208984 12.34587891 20.4375 12.328125 C19.42558594 12.31910156 18.41367187 12.31007812 17.37109375 12.30078125 C16.19740234 12.28337891 16.19740234 12.28337891 15 12.265625 C14.67 11.275625 14.34 10.285625 14 9.265625 C9.05 9.265625 4.1 9.265625 -1 9.265625 C-1 12.235625 -1 15.205625 -1 18.265625 C3.95 18.265625 8.9 18.265625 14 18.265625 C14 17.605625 14 16.945625 14 16.265625 C18.29 16.265625 22.58 16.265625 27 16.265625 C26.25 22.890625 26.25 22.890625 24 26.265625 C18.67712743 28.33376647 12.16985554 27.45019075 6.5625 27.453125 C5.33466797 27.46537109 4.10683594 27.47761719 2.84179688 27.49023438 C1.06579102 27.49313477 1.06579102 27.49313477 -0.74609375 27.49609375 C-1.82560303 27.50020264 -2.9051123 27.50431152 -4.01733398 27.50854492 C-7.10205722 27.25731306 -9.25769163 26.68490326 -12 25.265625 C-14.89954836 20.0188232 -14.73126781 13.10790439 -14 7.265625 C-12.64331334 4.17905308 -11.79694864 2.66614322 -8.76293945 1.14135742 C-5.69881228 0.17016151 -3.21082172 0.00702367 0 0 Z " fill="#E2E2E2" transform="translate(363,230.734375)"/>
<path d="M0 0 C1.07958984 -0.00773438 2.15917969 -0.01546875 3.27148438 -0.0234375 C4.82899414 -0.01957031 4.82899414 -0.01957031 6.41796875 -0.015625 C7.35793701 -0.01336914 8.29790527 -0.01111328 9.26635742 -0.00878906 C11.90266681 0.25916452 13.54841191 0.91102675 15.8125 2.25 C15.8125 2.91 15.8125 3.57 15.8125 4.25 C16.4725 4.25 17.1325 4.25 17.8125 4.25 C18.3075 8.21 18.3075 8.21 18.8125 12.25 C14.5225 12.25 10.2325 12.25 5.8125 12.25 C5.4825 11.59 5.1525 10.93 4.8125 10.25 C0.1925 10.25 -4.4275 10.25 -9.1875 10.25 C-8.8575 12.89 -8.5275 15.53 -8.1875 18.25 C-3.8975 18.25 0.3925 18.25 4.8125 18.25 C5.1425 17.59 5.4725 16.93 5.8125 16.25 C9.7725 16.25 13.7325 16.25 17.8125 16.25 C18.8125 21.25 18.8125 21.25 17.4375 24 C15.8125 26.25 15.8125 26.25 14.8125 27.25 C12.39929801 27.37562812 10.01622959 27.43861547 7.6015625 27.453125 C6.51565323 27.46167511 6.51565323 27.46167511 5.4078064 27.47039795 C3.87279732 27.4798612 2.3377678 27.48638717 0.80273438 27.49023438 C-1.54593425 27.4999316 -3.89372481 27.53093729 -6.2421875 27.5625 C-7.73176562 27.56903069 -9.22135002 27.5742809 -10.7109375 27.578125 C-11.76575821 27.5966452 -11.76575821 27.5966452 -12.84188843 27.61553955 C-17.71768588 27.59327529 -17.71768588 27.59327529 -20.11279297 25.84326172 C-23.45991611 20.88112505 -22.59143605 13.95083333 -22.1875 8.25 C-21.125 4.625 -21.125 4.625 -19.1875 2.25 C-12.90559789 -0.23873171 -6.68340146 -0.04840122 0 0 Z " fill="#E3E3E3" transform="translate(236.1875,128.75)"/>
<path d="M0 0 C1.08474609 -0.01224609 2.16949219 -0.02449219 3.28710938 -0.03710938 C4.33576172 -0.03904297 5.38441406 -0.04097656 6.46484375 -0.04296875 C7.41866943 -0.04707764 8.37249512 -0.05118652 9.35522461 -0.05541992 C12.31987085 0.21059352 14.41946903 0.82471817 17.0625 2.1875 C19.4919516 5.8316774 19.22429575 7.89991272 19.0625 12.1875 C15.1025 12.1875 11.1425 12.1875 7.0625 12.1875 C7.0625 11.5275 7.0625 10.8675 7.0625 10.1875 C1.7825 10.1875 -3.4975 10.1875 -8.9375 10.1875 C-8.6075 12.8275 -8.2775 15.4675 -7.9375 18.1875 C-3.3175 18.1875 1.3025 18.1875 6.0625 18.1875 C6.3925 17.5275 6.7225 16.8675 7.0625 16.1875 C11.0225 16.1875 14.9825 16.1875 19.0625 16.1875 C19.54782904 22.49677756 19.54782904 22.49677756 17.51586914 25.38867188 C14.252279 27.78155994 11.45624123 27.76437003 7.55859375 27.71875 C6.83889908 27.7225769 6.11920441 27.72640381 5.37770081 27.73034668 C3.86059159 27.73306196 2.34343526 27.72572745 0.82641602 27.70898438 C-1.49633871 27.68753381 -3.81601202 27.70881075 -6.13867188 27.734375 C-7.61459016 27.73173226 -9.09050652 27.7266084 -10.56640625 27.71875 C-11.60711021 27.73089539 -11.60711021 27.73089539 -12.6688385 27.74328613 C-15.80607992 27.68219971 -17.51356262 27.57633702 -19.86889648 25.41601562 C-21.64806836 21.70564759 -21.45044569 18.23950169 -21.4375 14.1875 C-21.46585937 13.38054687 -21.49421875 12.57359375 -21.5234375 11.7421875 C-21.53710643 7.60050038 -21.53005396 5.8368742 -18.65625 2.6875 C-12.72136609 -0.58691871 -6.62422005 0.00392198 0 0 Z " fill="#E4E4E4" transform="translate(102.9375,128.8125)"/>
<path d="M0 0 C9 0 9 0 12 1 C12.086985 4.77068832 12.14038579 8.54111932 12.1875 12.3125 C12.21263672 13.38435547 12.23777344 14.45621094 12.26367188 15.56054688 C12.27333984 16.58857422 12.28300781 17.61660156 12.29296875 18.67578125 C12.3086792 19.62364502 12.32438965 20.57150879 12.34057617 21.5480957 C12 24 12 24 10.66918945 25.77026367 C5.77029542 29.37940938 -1.09411889 28.2250016 -6.875 28.25 C-8.05964844 28.270625 -9.24429687 28.29125 -10.46484375 28.3125 C-11.60824219 28.31765625 -12.75164062 28.3228125 -13.9296875 28.328125 C-15.49565674 28.34214355 -15.49565674 28.34214355 -17.09326172 28.35644531 C-20.71901936 27.91182864 -23.39909292 26.60090708 -26 24 C-26.80005795 16.72046038 -27.28717449 9.32294948 -27 2 C-26 1 -26 1 -23.27734375 0.90234375 C-20.18489583 0.93489583 -17.09244792 0.96744792 -14 1 C-13.67 6.61 -13.34 12.22 -13 18 C-8.37828793 19.41113217 -8.37828793 19.41113217 -1 18 C-0.67 12.06 -0.34 6.12 0 0 Z " fill="#E7E7E7" transform="translate(311,79)"/>
<path d="M0 0 C9 0 9 0 12 1 C12.11627503 4.58305992 12.1872736 8.16563417 12.25 11.75 C12.30027344 13.27367188 12.30027344 13.27367188 12.3515625 14.828125 C12.45052457 22.34924229 12.45052457 22.34924229 10.171875 25.640625 C4.79268003 29.00745926 -1.17907815 28.22226265 -7.3125 28.25 C-8.44107422 28.270625 -9.56964844 28.29125 -10.73242188 28.3125 C-21.43494932 28.36289448 -21.43494932 28.36289448 -26 25 C-26.98043964 22.05868109 -27.11621202 20.17498335 -27.09765625 17.11328125 C-27.09443359 16.17548828 -27.09121094 15.23769531 -27.08789062 14.27148438 C-27.07532227 12.80678711 -27.07532227 12.80678711 -27.0625 11.3125 C-27.05798828 10.32443359 -27.05347656 9.33636719 -27.04882812 8.31835938 C-27.0370432 5.87888042 -27.01910783 3.43943259 -27 1 C-23.04 1 -19.08 1 -15 1 C-14.67 6.28 -14.34 11.56 -14 17 C-9.01579931 19.03702531 -9.01579931 19.03702531 -4.1875 18.625 C-2.805625 18.41875 -1.42375 18.2125 0 18 C0 12.06 0 6.12 0 0 Z " fill="#E7E7E7" transform="translate(164,79)"/>
<path d="M0 0 C4.75047352 -0.12391876 9.49999961 -0.21448561 14.25170898 -0.2746582 C15.86678461 -0.29974959 17.48174726 -0.33383126 19.09643555 -0.37719727 C21.42264706 -0.43809286 23.74735359 -0.46626124 26.07421875 -0.48828125 C27.15107185 -0.52699089 27.15107185 -0.52699089 28.24967957 -0.56648254 C32.21680755 -0.56868473 33.83412237 -0.13486555 36.95385742 2.40161133 C39.49888189 5.63352821 39.73921445 7.11189231 39.5 11.06640625 C38.65163253 14.34720232 36.5881706 15.96643739 34 18 C31.59940183 19.20029908 30.10639351 19.11459743 27.4296875 19.09765625 C26.53378906 19.09443359 25.63789063 19.09121094 24.71484375 19.08789062 C23.77769531 19.07951172 22.84054688 19.07113281 21.875 19.0625 C20.93011719 19.05798828 19.98523438 19.05347656 19.01171875 19.04882812 C16.67441613 19.03702357 14.33723939 19.02055759 12 19 C12 21.31 12 23.62 12 26 C10.18818595 26.19401633 8.37551468 26.38004375 6.5625 26.5625 C5.55316406 26.66691406 4.54382813 26.77132813 3.50390625 26.87890625 C2.67761719 26.91886719 1.85132812 26.95882813 1 27 C0 26 0 26 -0.11352539 23.49975586 C-0.10828857 22.41573486 -0.10305176 21.33171387 -0.09765625 20.21484375 C-0.09443359 19.04501953 -0.09121094 17.87519531 -0.08789062 16.66992188 C-0.07951172 15.43822266 -0.07113281 14.20652344 -0.0625 12.9375 C-0.05798828 11.70193359 -0.05347656 10.46636719 -0.04882812 9.19335938 C-0.03699608 6.12885883 -0.02051173 3.06445279 0 0 Z M12 8 C12 8.99 12 9.98 12 11 C16.29 11 20.58 11 25 11 C25.33 10.01 25.66 9.02 26 8 C21.38 8 16.76 8 12 8 Z " fill="#E8E8E8" transform="translate(124,232)"/>
<path d="M0 0 C4.3235925 -0.04602287 8.64632804 -0.08581365 12.9699707 -0.10986328 C14.43940112 -0.11989352 15.90881171 -0.13352101 17.37817383 -0.15087891 C19.49565537 -0.17525898 21.61287199 -0.18651286 23.73046875 -0.1953125 C25.63928833 -0.21102295 25.63928833 -0.21102295 27.58666992 -0.22705078 C32.02405981 0.06811928 34.84062754 0.84062754 38 4 C38.3359375 6.4609375 38.3359375 6.4609375 38.375 9.375 C38.40335937 10.33148438 38.43171875 11.28796875 38.4609375 12.2734375 C38 15 38 15 36.6796875 17.3359375 C32.30560313 20.05220564 27.77838186 19.41591108 22.75 19.25 C21.71875 19.23195312 20.6875 19.21390625 19.625 19.1953125 C17.08238936 19.14822712 14.54166838 19.0824805 12 19 C12 21.31 12 23.62 12 26 C7.77370786 27.40876405 4.89096249 27 0 27 C0 18.09 0 9.18 0 0 Z M12 8 C12 8.99 12 9.98 12 11 C16.29 11 20.58 11 25 11 C25.33 10.34 25.66 9.68 26 9 C21.27685687 8.22887459 16.78478822 7.90235126 12 8 Z " fill="#ECECEC" transform="translate(298,130)"/>
<path d="M0 0 C3.8605291 0.27406449 5.41966917 0.38528956 8.4375 2.875 C8.9325 3.844375 9.4275 4.81375 9.9375 5.8125 C13.03639575 11.37703889 16.4120793 16.69760299 19.93359375 22.00195312 C22.9375 26.59763029 22.9375 26.59763029 22.9375 28.8125 C20.66770335 28.92044277 18.39644804 28.99806176 16.125 29.0625 C14.86042969 29.10890625 13.59585938 29.1553125 12.29296875 29.203125 C8.9375 28.8125 8.9375 28.8125 7.36328125 26.828125 C6.89277344 26.16296875 6.42226563 25.4978125 5.9375 24.8125 C3.07997192 24.17796503 3.07997192 24.17796503 -0.0625 24.3125 C-1.114375 24.3021875 -2.16625 24.291875 -3.25 24.28125 C-6.19034873 24.50283019 -6.19034873 24.50283019 -7.51953125 26.828125 C-8.02871094 27.48296875 -8.53789062 28.1378125 -9.0625 28.8125 C-12.19921875 29.203125 -12.19921875 29.203125 -15.75 29.0625 C-17.51923828 29.00835937 -17.51923828 29.00835937 -19.32421875 28.953125 C-20.22785156 28.90671875 -21.13148438 28.8603125 -22.0625 28.8125 C-21.27508341 24.0134031 -19.56733074 20.93335057 -17.0625 16.8125 C-16.4025 16.8125 -15.7425 16.8125 -15.0625 16.8125 C-15.0625 15.8225 -15.0625 14.8325 -15.0625 13.8125 C-14.4025 13.8125 -13.7425 13.8125 -13.0625 13.8125 C-12.835625 13.1525 -12.60875 12.4925 -12.375 11.8125 C-11.941875 10.8225 -11.50875 9.8325 -11.0625 8.8125 C-10.65451172 7.76642578 -10.65451172 7.76642578 -10.23828125 6.69921875 C-7.7762348 1.54631113 -5.77903624 0.22524867 0 0 Z " fill="#E0E0E0" transform="translate(382.0625,179.1875)"/>
<path d="M0 0 C2.16732408 0.22912785 4.15793625 0.6510277 6.25390625 1.23828125 C6.25390625 1.89828125 6.25390625 2.55828125 6.25390625 3.23828125 C6.91390625 3.23828125 7.57390625 3.23828125 8.25390625 3.23828125 C8.51042969 3.72554687 8.76695313 4.2128125 9.03125 4.71484375 C12.16803362 10.5237023 15.65200303 16.04680819 19.30639648 21.53955078 C22.25390625 26.0259486 22.25390625 26.0259486 22.25390625 28.23828125 C19.9841096 28.34622402 17.71285429 28.42384301 15.44140625 28.48828125 C14.17683594 28.5346875 12.91226563 28.58109375 11.609375 28.62890625 C10.50207031 28.5 9.39476562 28.37109375 8.25390625 28.23828125 C7.22783285 26.92490729 6.226633 25.5916402 5.25390625 24.23828125 C2.28554762 23.75420191 2.28554762 23.75420191 -0.93359375 23.98828125 C-2.02027344 24.024375 -3.10695313 24.06046875 -4.2265625 24.09765625 C-5.05800781 24.1440625 -5.88945313 24.19046875 -6.74609375 24.23828125 C-7.40609375 25.55828125 -8.06609375 26.87828125 -8.74609375 28.23828125 C-13.36609375 28.23828125 -17.98609375 28.23828125 -22.74609375 28.23828125 C-21.61934881 22.60455653 -21.61934881 22.60455653 -19.75 19.6875 C-19.15928711 18.76420898 -19.15928711 18.76420898 -18.55664062 17.82226562 C-18.14478516 17.19642578 -17.73292969 16.57058594 -17.30859375 15.92578125 C-16.90060547 15.28060547 -16.49261719 14.63542969 -16.07226562 13.97070312 C-15.02296079 12.35309617 -13.89050434 10.79006001 -12.74609375 9.23828125 C-12.08609375 9.23828125 -11.42609375 9.23828125 -10.74609375 9.23828125 C-10.64296875 8.49578125 -10.53984375 7.75328125 -10.43359375 6.98828125 C-8.79846059 0.44774862 -6.33365411 -0.20362001 0 0 Z " fill="#DFDFDF" transform="translate(79.74609375,179.76171875)"/>
<path d="M0 0 C4.75191769 0.83897823 7.3622334 2.92633192 10.19921875 6.73828125 C11.125 8.5625 11.125 8.5625 11.125 11.5625 C11.785 11.5625 12.445 11.5625 13.125 11.5625 C13.681875 12.5525 14.23875 13.5425 14.8125 14.5625 C16.81031193 18.07836257 18.96299718 21.47677881 21.171875 24.86328125 C22.125 26.5625 22.125 26.5625 22.125 28.5625 C19.83390403 28.64325665 17.54200733 28.70157731 15.25 28.75 C13.33574219 28.80220703 13.33574219 28.80220703 11.3828125 28.85546875 C10.30773437 28.75878906 9.23265625 28.66210938 8.125 28.5625 C7.465 27.5725 6.805 26.5825 6.125 25.5625 C3.30202376 25.08305164 3.30202376 25.08305164 0.125 25.1875 C-0.9475 25.17976563 -2.02 25.17203125 -3.125 25.1640625 C-4.48625 25.36128906 -4.48625 25.36128906 -5.875 25.5625 C-6.535 26.5525 -7.195 27.5425 -7.875 28.5625 C-10.50197064 28.78387393 -12.88393964 28.84412025 -15.5 28.75 C-16.20640625 28.73646484 -16.9128125 28.72292969 -17.640625 28.70898438 C-19.38574128 28.6736104 -21.13046608 28.61980221 -22.875 28.5625 C-21.22373299 25.55377452 -19.55417468 22.55573824 -17.875 19.5625 C-17.42608398 18.76054199 -16.97716797 17.95858398 -16.51464844 17.13232422 C-6.92229088 0.37826726 -6.92229088 0.37826726 0 0 Z " fill="#E8E8E8" transform="translate(177.875,26.4375)"/>
<path d="M0 0 C12.54 0 25.08 0 38 0 C38 2.64 38 5.28 38 8 C33.71 8 29.42 8 25 8 C25 14.27 25 20.54 25 27 C20.71 27 16.42 27 12 27 C12 20.73 12 14.46 12 8 C8.04 8 4.08 8 0 8 C0 5.36 0 2.72 0 0 Z " fill="#E1E1E1" transform="translate(326,181)"/>
<path d="M0 0 C4.29 0 8.58 0 13 0 C13 6.27 13 12.54 13 19 C20.26 19 27.52 19 35 19 C35 21.64 35 24.28 35 27 C23.45 27 11.9 27 0 27 C0 18.09 0 9.18 0 0 Z " fill="#DCDCDC" transform="translate(407,181)"/>
<path d="M0 0 C12.54 0 25.08 0 38 0 C38 2.64 38 5.28 38 8 C33.71 8 29.42 8 25 8 C25 13.94 25 19.88 25 26 C21.04 26 17.08 26 13 26 C13 20.06 13 14.12 13 8 C8.71 8 4.42 8 0 8 C0 5.36 0 2.72 0 0 Z " fill="#E3E3E3" transform="translate(339,130)"/>
<path d="M0 0 C3.96 0 7.92 0 12 0 C12 8.91 12 17.82 12 27 C9.11788698 27.96070434 7.30149956 28.10581883 4.3125 28.0625 C3.10013672 28.04896484 3.10013672 28.04896484 1.86328125 28.03515625 C1.24839844 28.02355469 0.63351563 28.01195313 0 28 C-0.78841864 24.51905734 -1.12828808 21.30091152 -1.1328125 17.734375 C-1.13410156 16.76242188 -1.13539063 15.79046875 -1.13671875 14.7890625 C-1.13285156 13.78617188 -1.12898437 12.78328125 -1.125 11.75 C-1.12886719 10.73164062 -1.13273438 9.71328125 -1.13671875 8.6640625 C-1.13542969 7.69726562 -1.13414062 6.73046875 -1.1328125 5.734375 C-1.13168457 4.84975586 -1.13055664 3.96513672 -1.12939453 3.05371094 C-1 1 -1 1 0 0 Z " fill="#E6E6E6" transform="translate(224,79)"/>
<path d="M0 0 C4.29 0 8.58 0 13 0 C13.02682299 4.31254083 13.04675244 8.62491707 13.0625 12.9375 C13.07087891 14.16919922 13.07925781 15.40089844 13.08789062 16.66992188 C13.09111328 17.83974609 13.09433594 19.00957031 13.09765625 20.21484375 C13.10289307 21.29886475 13.10812988 22.38288574 13.11352539 23.49975586 C13 26 13 26 12 27 C8.04 27 4.08 27 0 27 C0 18.09 0 9.18 0 0 Z " fill="#E1E1E1" transform="translate(247,29)"/>
<path d="M0 0 C3.96 0 7.92 0 12 0 C13.71084501 1.71084501 13.13014689 3.94360093 13.1328125 6.27734375 C13.13474609 7.88319336 13.13474609 7.88319336 13.13671875 9.52148438 C13.13285156 10.64876953 13.12898438 11.77605469 13.125 12.9375 C13.12886719 14.06091797 13.13273437 15.18433594 13.13671875 16.34179688 C13.13542969 17.41365234 13.13414062 18.48550781 13.1328125 19.58984375 C13.13168457 20.57847412 13.13055664 21.56710449 13.12939453 22.58569336 C13 25 13 25 12 27 C8.04 27 4.08 27 0 27 C0 18.09 0 9.18 0 0 Z " fill="#D2D2D2" transform="translate(307,29)"/>
<path d="M0 0 C3.96 0 7.92 0 12 0 C12 8.91 12 17.82 12 27 C8.04 27 4.08 27 0 27 C0 18.09 0 9.18 0 0 Z " fill="#EFEFEF" transform="translate(311,181)"/>
<path d="M0 0 C3.96 0 7.92 0 12 0 C12 8.91 12 17.82 12 27 C8.04 27 4.08 27 0 27 C0 18.09 0 9.18 0 0 Z " fill="#E2E2E2" transform="translate(251,181)"/>
<path d="M0 0 C3.96 0 7.92 0 12 0 C12.02682299 4.31254083 12.04675244 8.62491707 12.0625 12.9375 C12.07087891 14.16919922 12.07925781 15.40089844 12.08789062 16.66992188 C12.09111328 17.83974609 12.09433594 19.00957031 12.09765625 20.21484375 C12.10289307 21.29886475 12.10812988 22.38288574 12.11352539 23.49975586 C12 26 12 26 11 27 C7.37 27 3.74 27 0 27 C0 18.09 0 9.18 0 0 Z " fill="#E2E2E2" transform="translate(93,29)"/>
<path d="M0 0 C3.96 0 7.92 0 12 0 C12 8.58 12 17.16 12 26 C8.11651516 27.29449495 5.09302664 27.13203312 1 27 C0 26 0 26 -0.11352539 23.49975586 C-0.10828857 22.41573486 -0.10305176 21.33171387 -0.09765625 20.21484375 C-0.09443359 19.04501953 -0.09121094 17.87519531 -0.08789062 16.66992188 C-0.07951172 15.43822266 -0.07113281 14.20652344 -0.0625 12.9375 C-0.05798828 11.70193359 -0.05347656 10.46636719 -0.04882812 9.19335938 C-0.03699618 6.12888587 -0.01906008 3.06443707 0 0 Z " fill="#E3E3E3" transform="translate(250,232)"/>
<path d="M0 0 C-0.99 0.66 -1.98 1.32 -3 2 C-3 4.64 -3 7.28 -3 10 C-13.395 10.495 -13.395 10.495 -24 11 C-24 10.34 -24 9.68 -24 9 C-17.4 9 -10.8 9 -4 9 C-4 7.02 -4 5.04 -4 3 C-5.19238281 3.03480469 -6.38476562 3.06960937 -7.61328125 3.10546875 C-9.17967342 3.13360753 -10.74608081 3.1609076 -12.3125 3.1875 C-13.09818359 3.21263672 -13.88386719 3.23777344 -14.69335938 3.26367188 C-15.45068359 3.27333984 -16.20800781 3.28300781 -16.98828125 3.29296875 C-17.68477783 3.3086792 -18.38127441 3.32438965 -19.09887695 3.34057617 C-21.54489783 2.90238443 -22.42702086 1.86562642 -24 0 C-15.83325905 -0.94120241 -8.16674095 -0.94120241 0 0 Z " fill="#707070" transform="translate(64,239)"/>
<path d="M0 0 C0 0.33 0 0.66 0 1 C-8.16674095 1.94120241 -15.83325905 1.94120241 -24 1 C-24 0.67 -24 0.34 -24 0 C-15.83325905 -0.94120241 -8.16674095 -0.94120241 0 0 Z " fill="#545454" transform="translate(429,239)"/>
<path d="M0 0 C0.66 0 1.32 0 2 0 C1.51781006 0.85609863 1.51781006 0.85609863 1.02587891 1.72949219 C-0.04769839 4.10556758 -0.30319209 5.74114872 -0.4140625 8.328125 C-0.45273438 9.12734375 -0.49140625 9.9265625 -0.53125 10.75 C-0.5621875 11.575 -0.593125 12.4 -0.625 13.25 C-0.66367188 14.09046875 -0.70234375 14.9309375 -0.7421875 15.796875 C-0.83615836 17.86423382 -0.91915564 19.93208627 -1 22 C-1.33 22 -1.66 22 -2 22 C-2.05790353 18.70840684 -2.09356261 15.41694397 -2.125 12.125 C-2.14175781 11.18785156 -2.15851563 10.25070313 -2.17578125 9.28515625 C-2.18544922 7.94130859 -2.18544922 7.94130859 -2.1953125 6.5703125 C-2.20578613 5.74289551 -2.21625977 4.91547852 -2.22705078 4.06298828 C-2 2 -2 2 0 0 Z " fill="#999999" transform="translate(242,81)"/>
</svg>
